<svg width="900" height="600" viewBox="0 0 900 600" xmlns="http://www.w3.org/2000/svg">
  <rect width="900" height="600" fill="#F4EFE5"/>
  <rect x="0" y="0" width="900" height="600" fill="url(#bg)"/>
  <rect x="70" y="380" width="760" height="140" rx="24" fill="#FFF8EA" fill-opacity="0.92"/>
  <rect x="110" y="150" width="240" height="220" rx="24" fill="#0F172A"/>
  <rect x="170" y="205" width="120" height="105" rx="16" fill="#D4AF37" fill-opacity="0.85"/>
  <rect x="380" y="200" width="240" height="160" rx="24" fill="#1E293B"/>
  <rect x="420" y="240" width="160" height="84" rx="16" fill="#F5E6B8"/>
  <circle cx="620" cy="240" r="88" fill="#D4AF37" fill-opacity="0.16"/>
  <circle cx="620" cy="240" r="58" fill="#E85D3A" fill-opacity="0.2"/>
  <circle cx="245" cy="445" r="46" fill="#D4AF37"/>
  <rect x="205" y="490" width="88" height="54" rx="14" fill="#0F172A"/>
  <circle cx="470" cy="445" r="44" fill="#0F172A"/>
  <rect x="430" y="490" width="84" height="54" rx="14" fill="#0F172A"/>
  <circle cx="660" cy="445" r="46" fill="#D4AF37"/>
  <rect x="620" y="490" width="86" height="54" rx="14" fill="#0F172A"/>
  <rect x="115" y="420" width="200" height="18" rx="9" fill="#D4AF37"/>
  <rect x="360" y="420" width="160" height="18" rx="9" fill="#D4AF37"/>
  <rect x="590" y="420" width="180" height="18" rx="9" fill="#D4AF37"/>
  <text x="120" y="120" font-family="Segoe UI, Arial, sans-serif" font-size="34" font-weight="700" fill="#0F172A">Study support that feels personal</text>
  <text x="120" y="156" font-family="Segoe UI, Arial, sans-serif" font-size="20" font-weight="400" fill="#334155">Guidance for applications, visas, and settling in Germany.</text>
  <defs>
    <linearGradient id="bg" x1="0" y1="0" x2="900" y2="600" gradientUnits="userSpaceOnUse">
      <stop offset="0%" stop-color="#FDEED9"/>
      <stop offset="100%" stop-color="#F1D8A2"/>
    </linearGradient>
  </defs>
</svg>